<svg xmlns="http://www.w3.org/2000/svg" xmlns:xlink="http://www.w3.org/1999/xlink" width="500" zoomAndPan="magnify" viewBox="0 0 375 374.999991" height="500" preserveAspectRatio="xMidYMid meet" version="1.0"><defs><g/><clipPath id="de309ff27d"><path d="M 0.199219 59 L 254.359375 59 L 254.359375 154.160156 L 0.199219 154.160156 Z M 0.199219 59 " clip-rule="nonzero"/></clipPath><clipPath id="bc57d19d1d"><rect x="0" width="255" y="0" height="96"/></clipPath><clipPath id="ac58c844ce"><path d="M 106 0.800781 L 191 0.800781 L 191 86 L 106 86 Z M 106 0.800781 " clip-rule="nonzero"/></clipPath><clipPath id="ebf06c4377"><path d="M 123.902344 22.09375 L 168.9375 22.09375 L 168.9375 50.753906 L 123.902344 50.753906 Z M 123.902344 22.09375 " clip-rule="nonzero"/></clipPath><clipPath id="af9465e19e"><rect x="0" width="255" y="0" height="155"/></clipPath></defs><g transform="matrix(1, 0, 0, 1, 61, 106)"><g clip-path="url(#af9465e19e)"><g clip-path="url(#de309ff27d)"><g transform="matrix(1, 0, 0, 1, 0, 59)"><g clip-path="url(#bc57d19d1d)"><g fill="#2563eb" fill-opacity="1"><g transform="translate(0.298486, 75.140535)"><g><path d="M 44.65625 -15.921875 C 45.53125 -15.546875 46.0625 -14.992188 46.25 -14.265625 C 46.4375 -13.546875 46.34375 -12.78125 45.96875 -11.96875 C 43.894531 -8.320312 41.019531 -5.414062 37.34375 -3.25 C 33.675781 -1.082031 29.707031 0 25.4375 0 C 21.101562 0 17.160156 -1.066406 13.609375 -3.203125 C 10.066406 -5.335938 7.257812 -8.207031 5.1875 -11.8125 C 3.113281 -15.425781 2.078125 -19.398438 2.078125 -23.734375 C 2.078125 -27.941406 3.113281 -31.820312 5.1875 -35.375 C 7.257812 -38.925781 10.066406 -41.769531 13.609375 -43.90625 C 17.160156 -46.039062 21.101562 -47.109375 25.4375 -47.109375 C 29.707031 -47.109375 33.675781 -46.039062 37.34375 -43.90625 C 41.019531 -41.769531 43.894531 -38.847656 45.96875 -35.140625 C 46.34375 -34.316406 46.4375 -33.546875 46.25 -32.828125 C 46.0625 -32.109375 45.53125 -31.5625 44.65625 -31.1875 C 44.082031 -30.738281 43.359375 -30.625 42.484375 -30.84375 C 41.609375 -31.070312 40.984375 -31.5625 40.609375 -32.3125 C 38.972656 -34.945312 36.800781 -37.050781 34.09375 -38.625 C 31.394531 -40.195312 28.507812 -40.984375 25.4375 -40.984375 C 22.289062 -40.984375 19.414062 -40.195312 16.8125 -38.625 C 14.207031 -37.050781 12.117188 -34.960938 10.546875 -32.359375 C 8.984375 -29.753906 8.203125 -26.878906 8.203125 -23.734375 C 8.203125 -20.472656 8.984375 -17.503906 10.546875 -14.828125 C 12.117188 -12.160156 14.207031 -10.023438 16.8125 -8.421875 C 19.414062 -6.828125 22.289062 -6.03125 25.4375 -6.03125 C 28.507812 -6.03125 31.394531 -6.8125 34.09375 -8.375 C 36.800781 -9.945312 38.972656 -12.054688 40.609375 -14.703125 C 40.984375 -15.515625 41.609375 -16.015625 42.484375 -16.203125 C 43.359375 -16.390625 44.082031 -16.296875 44.65625 -15.921875 Z M 44.65625 -15.921875 "/></g></g></g><g fill="#2563eb" fill-opacity="1"><g transform="translate(48.721807, 75.140535)"><g><path d="M 25.625 0 C 31.144531 0 36.070312 -1.726562 40.40625 -5.1875 C 41.101562 -5.6875 41.484375 -6.359375 41.546875 -7.203125 C 41.609375 -8.054688 41.390625 -8.796875 40.890625 -9.421875 C 40.316406 -10.109375 39.625 -10.5 38.8125 -10.59375 C 38 -10.6875 37.242188 -10.453125 36.546875 -9.890625 C 33.347656 -7.378906 29.707031 -6.125 25.625 -6.125 C 22.414062 -6.125 19.492188 -6.90625 16.859375 -8.46875 C 14.222656 -10.039062 12.117188 -12.144531 10.546875 -14.78125 C 8.984375 -17.425781 8.203125 -20.347656 8.203125 -23.546875 C 8.203125 -26.753906 8.984375 -29.675781 10.546875 -32.3125 C 12.117188 -34.945312 14.222656 -37.050781 16.859375 -38.625 C 19.492188 -40.195312 22.414062 -40.984375 25.625 -40.984375 C 28.820312 -40.984375 31.738281 -40.195312 34.375 -38.625 C 37.019531 -37.050781 39.125 -34.945312 40.6875 -32.3125 C 42.257812 -29.675781 43.046875 -26.753906 43.046875 -23.546875 L 43.046875 -3.015625 C 43.046875 -2.203125 43.359375 -1.492188 43.984375 -0.890625 C 44.617188 -0.296875 45.34375 0 46.15625 0 C 47.039062 0 47.765625 -0.296875 48.328125 -0.890625 C 48.890625 -1.492188 49.171875 -2.203125 49.171875 -3.015625 L 49.171875 -23.546875 C 49.171875 -27.878906 48.117188 -31.835938 46.015625 -35.421875 C 43.910156 -39.003906 41.066406 -41.847656 37.484375 -43.953125 C 33.910156 -46.054688 29.957031 -47.109375 25.625 -47.109375 C 21.289062 -47.109375 17.347656 -46.054688 13.796875 -43.953125 C 10.253906 -41.847656 7.414062 -39.003906 5.28125 -35.421875 C 3.144531 -31.835938 2.078125 -27.878906 2.078125 -23.546875 C 2.078125 -19.210938 3.144531 -15.269531 5.28125 -11.71875 C 7.414062 -8.175781 10.253906 -5.335938 13.796875 -3.203125 C 17.347656 -1.066406 21.289062 0 25.625 0 Z M 25.625 0 "/></g></g></g><g fill="#2563eb" fill-opacity="1"><g transform="translate(99.971399, 75.140535)"><g><path d="M 5.1875 0 C 6.0625 0 6.78125 -0.3125 7.34375 -0.9375 C 7.914062 -1.570312 8.203125 -2.296875 8.203125 -3.109375 L 8.203125 -23.546875 C 8.203125 -26.753906 8.984375 -29.675781 10.546875 -32.3125 C 12.117188 -34.945312 14.222656 -37.050781 16.859375 -38.625 C 19.492188 -40.195312 22.414062 -40.984375 25.625 -40.984375 C 28.132812 -40.984375 30.535156 -40.460938 32.828125 -39.421875 C 35.117188 -38.390625 37.082031 -36.929688 38.71875 -35.046875 C 39.28125 -34.421875 39.984375 -34.070312 40.828125 -34 C 41.679688 -33.9375 42.421875 -34.191406 43.046875 -34.765625 C 43.742188 -35.328125 44.109375 -36.03125 44.140625 -36.875 C 44.171875 -37.726562 43.898438 -38.46875 43.328125 -39.09375 C 41.128906 -41.664062 38.472656 -43.644531 35.359375 -45.03125 C 32.253906 -46.414062 29.007812 -47.109375 25.625 -47.109375 C 21.289062 -47.109375 17.347656 -46.054688 13.796875 -43.953125 C 10.253906 -41.847656 7.414062 -39.003906 5.28125 -35.421875 C 3.144531 -31.835938 2.078125 -27.878906 2.078125 -23.546875 L 2.078125 -3.109375 C 2.078125 -2.296875 2.390625 -1.570312 3.015625 -0.9375 C 3.640625 -0.3125 4.363281 0 5.1875 0 Z M 5.1875 0 "/></g></g></g><g fill="#2563eb" fill-opacity="1"><g transform="translate(143.590079, 75.140535)"><g><path d="M 5.1875 0 C 6.0625 0 6.796875 -0.296875 7.390625 -0.890625 C 7.992188 -1.492188 8.296875 -2.203125 8.296875 -3.015625 L 8.296875 -44.09375 C 8.296875 -44.90625 7.992188 -45.609375 7.390625 -46.203125 C 6.796875 -46.804688 6.0625 -47.109375 5.1875 -47.109375 C 4.300781 -47.109375 3.5625 -46.804688 2.96875 -46.203125 C 2.375 -45.609375 2.078125 -44.90625 2.078125 -44.09375 L 2.078125 -3.015625 C 2.078125 -2.203125 2.375 -1.492188 2.96875 -0.890625 C 3.5625 -0.296875 4.300781 0 5.1875 0 Z M 2.078125 -57.5625 C 2.078125 -56.738281 2.375 -56.015625 2.96875 -55.390625 C 3.5625 -54.765625 4.300781 -54.453125 5.1875 -54.453125 C 6.0625 -54.453125 6.796875 -54.765625 7.390625 -55.390625 C 7.992188 -56.015625 8.296875 -56.738281 8.296875 -57.5625 L 8.296875 -62.734375 C 8.296875 -63.617188 7.992188 -64.375 7.390625 -65 C 6.796875 -65.625 6.0625 -65.9375 5.1875 -65.9375 C 4.300781 -65.9375 3.5625 -65.625 2.96875 -65 C 2.375 -64.375 2.078125 -63.617188 2.078125 -62.734375 Z M 2.078125 -57.5625 "/></g></g></g><g fill="#2563eb" fill-opacity="1"><g transform="translate(153.953045, 75.140535)"><g><path d="M 25.53125 -47.109375 C 29.863281 -47.109375 33.785156 -46.039062 37.296875 -43.90625 C 40.816406 -41.769531 43.628906 -38.910156 45.734375 -35.328125 C 47.835938 -31.742188 48.890625 -27.785156 48.890625 -23.453125 C 48.890625 -22.640625 48.554688 -21.914062 47.890625 -21.28125 C 47.234375 -20.65625 46.5625 -20.34375 45.875 -20.34375 L 19.96875 -20.34375 C 19.21875 -20.34375 18.570312 -20.609375 18.03125 -21.140625 C 17.5 -21.679688 17.234375 -22.328125 17.234375 -23.078125 C 17.234375 -23.960938 17.5 -24.671875 18.03125 -25.203125 C 18.570312 -25.734375 19.21875 -26 19.96875 -26 L 42.578125 -26 C 42.203125 -28.820312 41.210938 -31.363281 39.609375 -33.625 C 38.003906 -35.882812 35.992188 -37.660156 33.578125 -38.953125 C 31.160156 -40.242188 28.476562 -40.890625 25.53125 -40.890625 C 22.320312 -40.890625 19.398438 -40.101562 16.765625 -38.53125 C 14.128906 -36.957031 12.039062 -34.867188 10.5 -32.265625 C 8.96875 -29.660156 8.203125 -26.722656 8.203125 -23.453125 C 8.203125 -20.316406 8.96875 -17.425781 10.5 -14.78125 C 12.039062 -12.144531 14.128906 -10.039062 16.765625 -8.46875 C 19.398438 -6.90625 22.320312 -6.125 25.53125 -6.125 C 28.664062 -6.125 31.550781 -6.90625 34.1875 -8.46875 C 36.832031 -10.039062 38.9375 -12.179688 40.5 -14.890625 C 40.882812 -15.578125 41.484375 -16.03125 42.296875 -16.25 C 43.109375 -16.46875 43.894531 -16.359375 44.65625 -15.921875 C 45.40625 -15.546875 45.890625 -14.945312 46.109375 -14.125 C 46.328125 -13.3125 46.21875 -12.53125 45.78125 -11.78125 C 43.707031 -8.132812 40.863281 -5.257812 37.25 -3.15625 C 33.644531 -1.050781 29.738281 0 25.53125 0 C 21.195312 0 17.253906 -1.050781 13.703125 -3.15625 C 10.160156 -5.257812 7.335938 -8.097656 5.234375 -11.671875 C 3.128906 -15.253906 2.078125 -19.179688 2.078125 -23.453125 C 2.078125 -27.785156 3.128906 -31.742188 5.234375 -35.328125 C 7.335938 -38.910156 10.160156 -41.769531 13.703125 -43.90625 C 17.253906 -46.039062 21.195312 -47.109375 25.53125 -47.109375 Z M 25.53125 -47.109375 "/></g></g></g><g fill="#2563eb" fill-opacity="1"><g transform="translate(204.920009, 75.140535)"><g><path d="M 46.53125 -5.1875 C 47.039062 -4.613281 47.296875 -3.90625 47.296875 -3.0625 C 47.296875 -2.21875 47.039062 -1.476562 46.53125 -0.84375 C 45.90625 -0.28125 45.1875 0 44.375 0 C 43.488281 0 42.765625 -0.28125 42.203125 -0.84375 L 23.921875 -19.5 L 5.65625 -0.84375 C 5.019531 -0.28125 4.296875 0 3.484375 0 C 2.609375 0 1.882812 -0.28125 1.3125 -0.84375 C 0.75 -1.476562 0.46875 -2.21875 0.46875 -3.0625 C 0.46875 -3.90625 0.75 -4.613281 1.3125 -5.1875 L 19.96875 -23.453125 L 1.3125 -41.828125 C 0.75 -42.453125 0.46875 -43.1875 0.46875 -44.03125 C 0.46875 -44.882812 0.75 -45.59375 1.3125 -46.15625 C 1.882812 -46.789062 2.59375 -47.109375 3.4375 -47.109375 C 4.28125 -47.109375 5.019531 -46.789062 5.65625 -46.15625 L 23.921875 -27.21875 L 42.203125 -46.15625 C 42.765625 -46.789062 43.46875 -47.109375 44.3125 -47.109375 C 45.164062 -47.109375 45.90625 -46.789062 46.53125 -46.15625 C 47.039062 -45.59375 47.296875 -44.882812 47.296875 -44.03125 C 47.296875 -43.1875 47.039062 -42.453125 46.53125 -41.828125 L 27.890625 -23.453125 Z M 46.53125 -5.1875 "/></g></g></g></g></g></g><g clip-path="url(#ac58c844ce)"><path fill="#2563eb" d="M 139.273438 83.703125 C 133.996094 86.871094 128.800781 82.476562 126.097656 78.167969 C 123.394531 73.863281 121.957031 68.75 121.746094 63.683594 C 121.535156 58.574219 120.648438 53.464844 120.3125 48.351562 C 120.058594 44.511719 118.324219 40.707031 115.371094 38.300781 C 111.527344 35.261719 107.21875 31.375 106.710938 26.179688 C 105.699219 16.085938 111.359375 6.667969 120.4375 2.613281 C 126.351562 -0.046875 132.8125 0.546875 138.132812 4.347656 C 139.316406 5.191406 140.625 6.035156 141.808594 6.921875 C 145.015625 9.371094 145.734375 13.890625 149.070312 16.425781 C 151.605469 18.367188 155.363281 17.859375 158.277344 17.355469 C 159.714844 17.101562 161.277344 17.734375 161.109375 19.421875 C 161.109375 19.421875 161.109375 19.464844 161.109375 19.464844 C 160.898438 21.070312 159.757812 21.027344 158.445312 21.238281 C 154.476562 21.914062 152.195312 22.210938 148.351562 20.605469 C 145.863281 19.59375 144.46875 17.101562 142.484375 15.496094 C 141.214844 14.480469 139.863281 13.804688 138.511719 13.46875 C 132.007812 11.90625 123.816406 18.367188 122.167969 24.40625 C 121.28125 27.699219 122.085938 30.996094 123.941406 33.78125 C 127.914062 39.738281 128.671875 42.609375 128.671875 49.789062 C 128.671875 53.589844 128.292969 57.433594 128.546875 61.234375 C 128.84375 64.992188 129.136719 69.597656 131.207031 72.933594 C 132.347656 74.75 135.09375 77.027344 137.332031 75.550781 C 139.148438 74.410156 138.722656 71.582031 139.0625 69.765625 C 139.609375 66.597656 142.863281 65.332031 143.496094 69.171875 C 143.960938 72.300781 142.949219 75.675781 142.273438 78.675781 C 141.808594 80.703125 140.835938 82.773438 139.273438 83.703125 Z M 158.195312 51.773438 C 155.109375 52.660156 151.4375 51.351562 148.480469 52.746094 C 146.367188 53.757812 139.230469 61.445312 143.328125 63.261719 C 144.679688 63.851562 145.566406 61.699219 146.113281 60.894531 C 147.636719 58.574219 151.054688 57.980469 153.082031 60.09375 C 154.855469 61.910156 155.070312 65.121094 155.238281 67.484375 C 155.574219 71.835938 154.773438 76.351562 156.039062 80.617188 C 156.589844 82.476562 157.601562 84.25 159.546875 84.882812 C 163.8125 86.195312 167.527344 83.617188 170.019531 80.324219 C 171.242188 78.675781 172.300781 76.816406 173.101562 74.875 C 173.480469 73.945312 173.523438 73.101562 173.734375 72.214844 C 174.328125 70.101562 175.003906 68.539062 175.339844 66.34375 C 175.929688 62.710938 176.566406 58.867188 176.691406 55.195312 C 176.777344 52.027344 176.902344 48.5625 178.085938 45.523438 C 179.351562 42.144531 182.097656 39.652344 184.421875 36.992188 C 185.773438 35.472656 187.503906 34.375 188.6875 32.726562 C 192.023438 28.039062 191.007812 21.070312 189.234375 15.960938 C 187.335938 10.597656 183.617188 5.65625 178.71875 2.742188 C 174.664062 0.292969 169.257812 0.714844 165.035156 2.574219 C 161.320312 4.175781 160.261719 7.597656 157.601562 10.34375 C 156.207031 11.820312 150.042969 14.230469 154.605469 15.453125 C 156.84375 16.042969 159.332031 15.328125 161.488281 15.917969 C 165.078125 16.890625 167.019531 20.308594 167.992188 23.6875 C 168.878906 26.773438 168.5 29.941406 168.539062 33.066406 C 168.582031 36.402344 168.582031 39.820312 167.484375 43.03125 C 166.050781 47.464844 162.628906 50.507812 158.195312 51.773438 Z M 158.195312 51.773438 " fill-opacity="1" fill-rule="nonzero"/></g><g clip-path="url(#ebf06c4377)"><path fill="#2563eb" d="M 167.90625 36.601562 L 160.710938 36.601562 C 159.664062 36.601562 158.761719 37.398438 158.570312 38.5 L 158.023438 41.59375 L 156.300781 32.34375 C 156.117188 31.371094 155.347656 30.703125 154.417969 30.703125 C 154.402344 30.703125 154.386719 30.703125 154.371094 30.703125 C 153.417969 30.726562 152.652344 31.441406 152.515625 32.441406 L 150.292969 48.242188 L 147.734375 23.90625 C 147.625 22.871094 146.832031 22.109375 145.851562 22.09375 C 145.839844 22.09375 145.832031 22.09375 145.824219 22.09375 C 144.855469 22.09375 144.058594 22.828125 143.921875 23.847656 L 141.496094 42.007812 L 140.363281 31.535156 C 140.253906 30.519531 139.5 29.777344 138.535156 29.730469 C 137.570312 29.683594 136.777344 30.347656 136.578125 31.332031 L 135.386719 37.160156 L 135.144531 35.707031 C 134.992188 34.816406 134.324219 34.144531 133.472656 34.042969 C 132.628906 33.941406 131.855469 34.402344 131.496094 35.230469 L 130.921875 36.601562 L 124.933594 36.601562 C 124.378906 36.601562 123.933594 37.046875 123.933594 37.597656 C 123.933594 38.152344 124.378906 38.597656 124.933594 38.597656 L 131.050781 38.597656 C 131.78125 38.597656 132.441406 38.144531 132.738281 37.4375 L 133.21875 36.304688 L 133.488281 37.921875 C 133.652344 38.894531 134.417969 39.585938 135.347656 39.601562 C 136.28125 39.632812 137.0625 38.960938 137.257812 37.996094 L 138.429688 32.246094 L 139.578125 42.875 C 139.691406 43.914062 140.484375 44.675781 141.46875 44.6875 C 141.476562 44.6875 141.480469 44.6875 141.488281 44.6875 C 142.472656 44.6875 143.25 43.96875 143.386719 42.933594 L 145.8125 24.78125 L 148.371094 49.085938 C 148.480469 50.121094 149.269531 50.886719 150.246094 50.902344 C 150.261719 50.902344 150.273438 50.902344 150.285156 50.902344 C 151.257812 50.902344 152.035156 50.195312 152.179688 49.164062 L 154.425781 33.199219 L 156.144531 42.414062 C 156.328125 43.382812 157.101562 44.054688 158.027344 44.054688 C 158.03125 44.054688 158.039062 44.054688 158.042969 44.054688 C 158.976562 44.046875 159.746094 43.363281 159.914062 42.390625 L 160.539062 38.84375 C 160.566406 38.679688 160.664062 38.597656 160.710938 38.597656 L 167.90625 38.597656 C 168.460938 38.597656 168.90625 38.152344 168.90625 37.597656 C 168.90625 37.046875 168.460938 36.601562 167.90625 36.601562 Z M 167.90625 36.601562 " fill-opacity="1" fill-rule="nonzero"/></g></g></g></svg>