<svg xmlns="http://www.w3.org/2000/svg" xmlns:xlink="http://www.w3.org/1999/xlink" width="500" zoomAndPan="magnify" viewBox="0 0 375 374.999991" height="500" preserveAspectRatio="xMidYMid meet" version="1.0"><defs><clipPath id="4e32220345"><path d="M 0.679688 0.199219 L 239.960938 0.199219 L 239.960938 239 L 0.679688 239 Z M 0.679688 0.199219 " clip-rule="nonzero"/></clipPath><clipPath id="be9e0c2600"><path d="M 49.894531 60.191406 L 177.285156 60.191406 L 177.285156 141.257812 L 49.894531 141.257812 Z M 49.894531 60.191406 " clip-rule="nonzero"/></clipPath><clipPath id="44f01cc4c9"><rect x="0" width="240" y="0" height="240"/></clipPath></defs><g transform="matrix(1, 0, 0, 1, 67, 67)"><g clip-path="url(#44f01cc4c9)"><g clip-path="url(#4e32220345)"><path fill="#2563eb" d="M 93.375 234.453125 C 78.441406 243.414062 63.75 230.988281 56.105469 218.804688 C 48.457031 206.621094 44.398438 192.164062 43.800781 177.832031 C 43.203125 163.375 40.695312 148.921875 39.738281 134.464844 C 39.019531 123.597656 34.125 112.84375 25.761719 106.035156 C 14.890625 97.433594 2.707031 86.445312 1.273438 71.75 C -1.59375 43.199219 14.414062 16.558594 40.097656 5.09375 C 56.820312 -2.433594 75.097656 -0.761719 90.148438 9.988281 C 93.496094 12.378906 97.199219 14.769531 100.542969 17.277344 C 109.621094 24.207031 111.652344 36.988281 121.089844 44.15625 C 128.257812 49.648438 138.890625 48.214844 147.132812 46.785156 C 151.195312 46.066406 155.613281 47.859375 155.136719 52.636719 C 155.136719 52.636719 155.136719 52.757812 155.136719 52.757812 C 154.539062 57.296875 151.3125 57.175781 147.609375 57.773438 C 136.382812 59.683594 129.929688 60.519531 119.058594 55.980469 C 112.011719 53.113281 108.070312 46.066406 102.453125 41.527344 C 98.871094 38.660156 95.046875 36.75 91.226562 35.792969 C 72.828125 31.371094 49.652344 49.648438 44.996094 66.734375 C 42.484375 76.050781 44.753906 85.367188 50.011719 93.253906 C 61.242188 110.097656 63.390625 118.21875 63.390625 138.527344 C 63.390625 149.28125 62.316406 160.152344 63.03125 170.902344 C 63.867188 181.535156 64.703125 194.554688 70.558594 203.992188 C 73.785156 209.128906 81.550781 215.578125 87.878906 211.398438 C 93.015625 208.171875 91.824219 200.167969 92.777344 195.03125 C 94.332031 186.074219 103.53125 182.488281 105.320312 193.359375 C 106.636719 202.199219 103.769531 211.757812 101.855469 220.238281 C 100.542969 225.972656 97.796875 231.828125 93.375 234.453125 Z M 146.894531 144.144531 C 138.171875 146.652344 127.78125 142.949219 119.417969 146.890625 C 113.445312 149.757812 93.257812 171.5 104.84375 176.636719 C 108.667969 178.308594 111.175781 172.214844 112.726562 169.945312 C 117.027344 163.375 126.703125 161.703125 132.4375 167.675781 C 137.457031 172.8125 138.054688 181.890625 138.53125 188.582031 C 139.488281 200.886719 137.21875 213.667969 140.800781 225.734375 C 142.355469 230.988281 145.222656 236.007812 150.714844 237.800781 C 162.78125 241.503906 173.292969 234.214844 180.34375 224.898438 C 183.804688 220.238281 186.792969 214.984375 189.0625 209.488281 C 190.136719 206.859375 190.257812 204.46875 190.855469 201.960938 C 192.527344 195.988281 194.4375 191.570312 195.394531 185.355469 C 197.066406 175.082031 198.859375 164.210938 199.214844 153.820312 C 199.457031 144.859375 199.8125 135.0625 203.160156 126.464844 C 206.742188 116.90625 214.507812 109.859375 221.078125 102.332031 C 224.902344 98.03125 229.796875 94.925781 233.144531 90.265625 C 242.582031 77.007812 239.714844 57.296875 234.695312 42.839844 C 229.320312 27.667969 218.808594 13.691406 204.949219 5.449219 C 193.484375 -1.476562 178.191406 -0.285156 166.246094 4.972656 C 155.734375 9.511719 152.746094 19.1875 145.222656 26.953125 C 141.277344 31.132812 123.835938 37.941406 136.738281 41.40625 C 143.070312 43.078125 150.117188 41.050781 156.210938 42.722656 C 166.367188 45.46875 171.859375 55.144531 174.609375 64.703125 C 177.117188 73.421875 176.042969 82.382812 176.160156 91.222656 C 176.28125 100.660156 176.28125 110.335938 173.175781 119.414062 C 169.113281 131.957031 159.4375 140.558594 146.894531 144.144531 Z M 146.894531 144.144531 " fill-opacity="1" fill-rule="nonzero"/></g><g clip-path="url(#be9e0c2600)"><path fill="#2563eb" d="M 174.371094 101.222656 L 154.011719 101.222656 C 151.050781 101.222656 148.5 103.480469 147.957031 106.59375 L 146.417969 115.351562 L 141.535156 89.183594 C 141.019531 86.433594 138.839844 84.542969 136.210938 84.542969 C 136.167969 84.542969 136.121094 84.542969 136.078125 84.542969 C 133.382812 84.605469 131.222656 86.628906 130.828125 89.453125 L 124.539062 134.148438 L 117.304688 65.320312 C 116.996094 62.386719 114.757812 60.230469 111.976562 60.191406 C 111.953125 60.191406 111.925781 60.191406 111.902344 60.191406 C 109.164062 60.191406 106.910156 62.269531 106.527344 65.152344 L 99.65625 116.511719 L 96.460938 86.898438 C 96.148438 84.019531 94.023438 81.917969 91.289062 81.792969 C 88.558594 81.652344 86.316406 83.53125 85.746094 86.324219 L 82.386719 102.808594 L 81.691406 98.699219 C 81.269531 96.171875 79.371094 94.28125 76.964844 93.988281 C 74.574219 93.699219 72.390625 95.011719 71.382812 97.351562 L 69.757812 101.222656 L 52.8125 101.222656 C 51.25 101.222656 49.984375 102.488281 49.984375 104.050781 C 49.984375 105.609375 51.25 106.875 52.8125 106.875 L 70.113281 106.875 C 72.179688 106.875 74.054688 105.585938 74.894531 103.589844 L 76.246094 100.390625 L 77.015625 104.957031 C 77.480469 107.710938 79.644531 109.667969 82.277344 109.714844 C 84.917969 109.800781 87.117188 107.894531 87.675781 105.175781 L 90.992188 88.910156 L 94.238281 118.976562 C 94.554688 121.910156 96.804688 124.0625 99.582031 124.09375 C 99.601562 124.09375 99.625 124.09375 99.644531 124.09375 C 102.421875 124.09375 104.625 122.0625 105.011719 119.132812 L 111.878906 67.789062 L 119.109375 136.542969 C 119.414062 139.46875 121.648438 141.628906 124.417969 141.679688 C 124.453125 141.679688 124.488281 141.679688 124.523438 141.679688 C 127.273438 141.679688 129.46875 139.675781 129.882812 136.765625 L 136.238281 91.597656 L 141.097656 117.667969 C 141.613281 120.40625 143.800781 122.308594 146.425781 122.308594 C 146.4375 122.308594 146.453125 122.308594 146.464844 122.308594 C 149.109375 122.289062 151.289062 120.347656 151.761719 117.601562 L 153.523438 107.570312 C 153.605469 107.109375 153.882812 106.875 154.011719 106.875 L 174.371094 106.875 C 175.929688 106.875 177.195312 105.609375 177.195312 104.046875 C 177.195312 102.488281 175.929688 101.222656 174.371094 101.222656 Z M 174.371094 101.222656 " fill-opacity="1" fill-rule="nonzero"/></g></g></g></svg>