<svg width="374" height="104" viewBox="0 0 374 104" fill="none" xmlns="http://www.w3.org/2000/svg">
<path d="M39.9077 101.023C33.465 104.893 27.1212 99.5286 23.8191 94.2682C20.5171 89.0078 18.7619 82.7682 18.5066 76.5755C18.2462 70.3359 17.1629 64.0963 16.7514 57.8568C16.4441 53.164 14.3296 48.5182 10.7202 45.5807C6.02227 41.8672 0.761854 37.1224 0.142064 30.7786C-1.09231 18.4505 5.81915 6.95051 16.9077 1.99738C24.1264 -1.25262 32.0171 -0.52866 38.5171 4.11197C39.9598 5.14321 41.5587 6.17447 43.0066 7.2578C46.9233 10.2526 47.8035 15.7682 51.8764 18.862C54.9702 21.237 59.5587 20.6172 63.1212 19.9974C64.8712 19.6901 66.7827 20.4609 66.5744 22.5234V22.5755C66.3191 24.539 64.9233 24.487 63.3244 24.7422C58.4754 25.5703 55.6941 25.9297 50.9962 23.9713C47.9546 22.7318 46.2514 19.6901 43.8296 17.7318C42.2827 16.4922 40.6316 15.664 38.9806 15.2526C31.0379 13.3463 21.0327 21.237 19.0223 28.612C17.9389 32.6328 18.9181 36.6588 21.1889 40.0599C26.0379 47.3359 26.965 50.8411 26.965 59.6068C26.965 64.2526 26.5014 68.9453 26.8087 73.5859C27.1681 78.1745 27.5327 83.7995 30.0587 87.8724C31.4494 90.0911 34.8035 92.8776 37.5379 91.0703C39.7566 89.6797 39.241 86.2213 39.6525 84.0026C40.3244 80.138 44.2931 78.5911 45.0691 83.2838C45.6369 87.1015 44.3973 91.2266 43.5744 94.888C43.0066 97.362 41.8191 99.888 39.9077 101.023ZM63.0171 62.0338C59.2514 63.1172 54.7619 61.5182 51.1525 63.2213C48.5744 64.4557 39.8608 73.8463 44.8608 76.0599C46.5119 76.7838 47.5952 74.1536 48.2671 73.1745C50.1212 70.3359 54.2983 69.6172 56.7775 72.1953C58.9389 74.414 59.1994 78.3307 59.4077 81.2213C59.8191 86.5338 58.84 92.0495 60.3869 97.2578C61.0587 99.5286 62.2931 101.695 64.6681 102.471C69.8764 104.07 74.4129 100.919 77.4598 96.8984C78.9546 94.888 80.241 92.6172 81.2202 90.2474C81.6889 89.112 81.7358 88.0807 81.9962 86.9974C82.7202 84.4193 83.5431 82.5078 83.9546 79.8255C84.6785 75.3932 85.4494 70.7005 85.6056 66.2109C85.7098 62.3411 85.866 58.112 87.3087 54.3984C88.8556 50.2734 92.2098 47.2318 95.0431 43.9818C96.6941 42.1224 98.8087 40.7838 100.257 38.7734C104.33 33.0495 103.09 24.539 100.923 18.2943C98.6056 11.7474 94.0639 5.71092 88.0796 2.15363C83.1316 -0.835952 76.5275 -0.320327 71.3712 1.9453C66.8348 3.90884 65.5431 8.08592 62.2931 11.4349C60.59 13.2422 53.0639 16.1797 58.6316 17.6797C61.366 18.3984 64.4077 17.5234 67.0379 18.2474C71.4233 19.4297 73.7931 23.6068 74.9806 27.737C76.0639 31.5026 75.6004 35.3672 75.6525 39.1849C75.7046 43.2578 75.7046 47.4349 74.3608 51.3568C72.6108 56.7734 68.4337 60.487 63.0171 62.0338Z" fill="#2563EB"/>
<mask id="mask0_31_38" style="mask-type:luminance" maskUnits="userSpaceOnUse" x="21" y="25" width="56" height="36">
<path d="M21.1368 25.7891H76.1368V60.7891H21.1368V25.7891Z" fill="white"/>
</mask>
<g mask="url(#mask0_31_38)">
<path d="M74.8764 43.5026H66.0899C64.8087 43.5026 63.7097 44.4766 63.4753 45.8203L62.8087 49.6016L60.7045 38.3047C60.4806 37.1172 59.5378 36.2995 58.4024 36.2995C58.3868 36.2995 58.366 36.2995 58.3451 36.2995C57.1837 36.3307 56.2514 37.2005 56.0795 38.4245L53.366 57.7161L50.241 28.0026C50.1056 26.737 49.142 25.8047 47.9389 25.7891C47.9285 25.7891 47.9181 25.7891 47.9076 25.7891C46.7253 25.7891 45.7514 26.6849 45.5899 27.9297L42.6212 50.1068L41.241 37.3203C41.1056 36.0755 40.1889 35.1693 39.0118 35.112C37.8295 35.0547 36.8608 35.8672 36.616 37.0703L35.1681 44.1901L34.866 42.4141C34.6837 41.3203 33.866 40.5026 32.8243 40.3776C31.793 40.2526 30.8503 40.8203 30.4128 41.8307L29.7149 43.5026H22.3972C21.7201 43.5026 21.1785 44.0495 21.1785 44.7214C21.1785 45.3984 21.7201 45.9453 22.3972 45.9453H29.866C30.7566 45.9453 31.5691 45.388 31.9285 44.5234L32.5118 43.1432L32.8451 45.1172C33.0483 46.3047 33.9805 47.1484 35.116 47.1693C36.2566 47.2057 37.2097 46.3828 37.4493 45.2109L38.8816 38.1901L40.2826 51.1693C40.4181 52.4349 41.392 53.362 42.5899 53.3776C42.6003 53.3776 42.6056 53.3776 42.616 53.3776C43.8139 53.3776 44.767 52.4974 44.9337 51.237L47.8972 29.0651L51.0222 58.7526C51.1524 60.013 52.116 60.9453 53.3139 60.9714C53.3295 60.9714 53.3399 60.9714 53.3556 60.9714C54.5431 60.9714 55.4962 60.1016 55.6733 58.8464L58.4128 39.3464L60.5118 50.6016C60.7358 51.7839 61.6785 52.6068 62.8139 52.6068C62.8191 52.6068 62.8243 52.6068 62.8295 52.6068C63.9701 52.5964 64.9128 51.7578 65.116 50.5755L65.8816 46.2422C65.9128 46.0443 66.0326 45.9453 66.0899 45.9453H74.8764C75.5535 45.9453 76.1003 45.3984 76.1003 44.7214C76.1003 44.0495 75.5535 43.5026 74.8764 43.5026Z" fill="#2563EB"/>
</g>
<mask id="mask1_31_38" style="mask-type:luminance" maskUnits="userSpaceOnUse" x="103" y="0" width="271" height="104">
<path d="M373.793 0.492188H103.126V103.159H373.793V0.492188Z" fill="white"/>
</mask>
<g mask="url(#mask1_31_38)">
<path d="M151.647 64.0655C152.575 64.4718 153.137 65.0551 153.335 65.8155C153.543 66.5812 153.444 67.3937 153.043 68.253C150.845 72.1176 147.804 75.201 143.918 77.503C140.028 79.7947 135.819 80.9405 131.293 80.9405C126.694 80.9405 122.512 79.8103 118.752 77.5447C115.002 75.2843 112.022 72.2426 109.814 68.4197C107.616 64.5864 106.522 60.3728 106.522 55.7739C106.522 51.3155 107.616 47.2114 109.814 43.4614C112.022 39.701 115.002 36.6853 118.752 34.4197C122.512 32.1593 126.694 31.0239 131.293 31.0239C135.819 31.0239 140.028 32.1593 143.918 34.4197C147.804 36.6853 150.845 39.7843 153.043 43.7114C153.444 44.576 153.543 45.3885 153.335 46.1489C153.137 46.9145 152.575 47.4978 151.647 47.8989C151.049 48.3572 150.283 48.477 149.356 48.253C148.424 48.0187 147.757 47.4978 147.356 46.6905C145.632 43.8989 143.34 41.6697 140.481 40.003C137.616 38.3364 134.554 37.503 131.293 37.503C127.96 37.503 124.908 38.3364 122.147 40.003C119.397 41.6697 117.189 43.8885 115.522 46.6489C113.856 49.4145 113.022 52.4562 113.022 55.7739C113.022 59.2478 113.856 62.3989 115.522 65.2322C117.189 68.0551 119.397 70.3103 122.147 72.003C124.908 73.701 127.96 74.5447 131.293 74.5447C134.554 74.5447 137.616 73.7218 140.481 72.0655C143.34 70.3989 145.632 68.1645 147.356 65.3572C147.757 64.4978 148.424 63.9718 149.356 63.7739C150.283 63.5655 151.049 63.6645 151.647 64.0655Z" fill="#0F172A"/>
<path d="M182.792 80.9405C188.652 80.9405 193.881 79.1072 198.48 75.4405C199.199 74.9145 199.595 74.2062 199.667 73.3155C199.735 72.4145 199.506 71.628 198.98 70.9614C198.381 70.227 197.647 69.8103 196.772 69.7114C195.907 69.6176 195.11 69.8676 194.376 70.4614C190.985 73.128 187.126 74.4614 182.792 74.4614C179.402 74.4614 176.313 73.628 173.522 71.9614C170.73 70.2947 168.501 68.0655 166.834 65.2739C165.167 62.4718 164.334 59.3728 164.334 55.9822C164.334 52.5968 165.167 49.503 166.834 46.7114C168.501 43.9093 170.73 41.6697 173.522 40.003C176.313 38.3364 179.402 37.503 182.792 37.503C186.193 37.503 189.292 38.3364 192.084 40.003C194.876 41.6697 197.105 43.9093 198.772 46.7114C200.438 49.503 201.272 52.5968 201.272 55.9822V77.753C201.272 78.6176 201.605 79.3676 202.272 80.003C202.938 80.628 203.699 80.9405 204.563 80.9405C205.49 80.9405 206.256 80.628 206.855 80.003C207.449 79.3676 207.751 78.6176 207.751 77.753V55.9822C207.751 51.3885 206.631 47.1905 204.397 43.3989C202.173 39.6072 199.167 36.602 195.376 34.378C191.584 32.1437 187.386 31.0239 182.792 31.0239C178.209 31.0239 174.032 32.1437 170.272 34.378C166.506 36.602 163.49 39.6072 161.23 43.3989C158.964 47.1905 157.834 51.3885 157.834 55.9822C157.834 60.5812 158.964 64.7635 161.23 68.5239C163.49 72.2739 166.506 75.2843 170.272 77.5447C174.032 79.8103 178.209 80.9405 182.792 80.9405Z" fill="#0F172A"/>
<path d="M215.453 80.9405C216.38 80.9405 217.146 80.6072 217.745 79.9405C218.339 79.2739 218.641 78.5135 218.641 77.6489V55.9822C218.641 52.5968 219.474 49.503 221.141 46.7114C222.807 43.9093 225.036 41.6697 227.828 40.003C230.62 38.3364 233.708 37.503 237.099 37.503C239.766 37.503 242.313 38.0603 244.745 39.1697C247.172 40.2687 249.255 41.8103 250.995 43.7947C251.589 44.4614 252.333 44.8312 253.224 44.8989C254.125 44.9718 254.911 44.7062 255.578 44.1072C256.313 43.5135 256.693 42.7635 256.724 41.8572C256.75 40.9562 256.464 40.1697 255.87 39.503C253.547 36.7843 250.734 34.6905 247.432 33.2322C244.141 31.7635 240.693 31.0239 237.099 31.0239C232.516 31.0239 228.339 32.1437 224.578 34.378C220.812 36.602 217.797 39.6072 215.536 43.3989C213.271 47.1905 212.141 51.3885 212.141 55.9822V77.6489C212.141 78.5135 212.474 79.2739 213.141 79.9405C213.807 80.6072 214.578 80.9405 215.453 80.9405Z" fill="#0F172A"/>
<path d="M261.674 80.9405C262.601 80.9405 263.382 80.628 264.007 80.003C264.642 79.3676 264.965 78.6176 264.965 77.753V34.2114C264.965 33.352 264.642 32.6072 264.007 31.9822C263.382 31.3468 262.601 31.0239 261.674 31.0239C260.726 31.0239 259.934 31.3468 259.299 31.9822C258.674 32.6072 258.361 33.352 258.361 34.2114V77.753C258.361 78.6176 258.674 79.3676 259.299 80.003C259.934 80.628 260.726 80.9405 261.674 80.9405ZM258.361 19.9405C258.361 20.8051 258.674 21.5655 259.299 22.2322C259.934 22.8989 260.726 23.2322 261.674 23.2322C262.601 23.2322 263.382 22.8989 264.007 22.2322C264.642 21.5655 264.965 20.8051 264.965 19.9405V14.4614C264.965 13.5187 264.642 12.7218 264.007 12.0655C263.382 11.3989 262.601 11.0655 261.674 11.0655C260.726 11.0655 259.934 11.3989 259.299 12.0655C258.674 12.7218 258.361 13.5187 258.361 14.4614V19.9405Z" fill="#0F172A"/>
<path d="M294.217 31.0239C298.8 31.0239 302.952 32.1593 306.675 34.4197C310.41 36.6853 313.389 39.7114 315.613 43.503C317.847 47.2947 318.967 51.4926 318.967 56.0864C318.967 56.951 318.613 57.7114 317.905 58.378C317.207 59.0447 316.498 59.378 315.78 59.378H288.321C287.514 59.378 286.827 59.0968 286.259 58.5239C285.702 57.9562 285.425 57.2739 285.425 56.4822C285.425 55.5551 285.702 54.8051 286.259 54.2322C286.827 53.6645 287.514 53.378 288.321 53.378H312.28C311.873 50.3937 310.827 47.7062 309.134 45.3155C307.436 42.9145 305.306 41.0343 302.738 39.6697C300.181 38.2947 297.342 37.6072 294.217 37.6072C290.811 37.6072 287.717 38.4405 284.925 40.1072C282.134 41.7739 279.915 43.9926 278.28 46.753C276.655 49.5187 275.842 52.628 275.842 56.0864C275.842 59.4093 276.655 62.4718 278.28 65.2739C279.915 68.0655 282.134 70.2947 284.925 71.9614C287.717 73.628 290.811 74.4614 294.217 74.4614C297.535 74.4614 300.592 73.628 303.384 71.9614C306.186 70.2947 308.425 68.0343 310.092 65.1697C310.478 64.4353 311.103 63.9562 311.967 63.7322C312.842 63.4978 313.675 63.6072 314.467 64.0655C315.269 64.4718 315.785 65.102 316.009 65.9614C316.243 66.826 316.134 67.6593 315.675 68.4614C313.478 72.326 310.467 75.3728 306.634 77.6072C302.811 79.8312 298.675 80.9405 294.217 80.9405C289.618 80.9405 285.436 79.8312 281.675 77.6072C277.91 75.3728 274.91 72.3572 272.675 68.5655C270.452 64.7739 269.342 60.6176 269.342 56.0864C269.342 51.4926 270.452 47.2947 272.675 43.503C274.91 39.7114 277.91 36.6853 281.675 34.4197C285.436 32.1593 289.618 31.0239 294.217 31.0239Z" fill="#0F172A"/>
<path d="M370.474 75.4405C371.016 76.0551 371.287 76.8103 371.287 77.7114C371.287 78.602 371.016 79.378 370.474 80.0447C369.807 80.6437 369.042 80.9405 368.182 80.9405C367.25 80.9405 366.485 80.6437 365.891 80.0447L346.516 60.2739L327.162 80.0447C326.495 80.6437 325.724 80.9405 324.849 80.9405C323.917 80.9405 323.151 80.6437 322.557 80.0447C321.958 79.378 321.662 78.602 321.662 77.7114C321.662 76.8103 321.958 76.0551 322.557 75.4405L342.328 56.0864L322.557 36.6072C321.958 35.9405 321.662 35.1645 321.662 34.2739C321.662 33.3728 321.958 32.6228 322.557 32.0239C323.151 31.3572 323.901 31.0239 324.807 31.0239C325.708 31.0239 326.495 31.3572 327.162 32.0239L346.516 52.0864L365.891 32.0239C366.485 31.3572 367.229 31.0239 368.12 31.0239C369.021 31.0239 369.807 31.3572 370.474 32.0239C371.016 32.6228 371.287 33.3728 371.287 34.2739C371.287 35.1645 371.016 35.9405 370.474 36.6072L350.703 56.0864L370.474 75.4405Z" fill="#0F172A"/>
</g>
</svg>
