<svg xmlns="http://www.w3.org/2000/svg" xmlns:xlink="http://www.w3.org/1999/xlink" width="500" zoomAndPan="magnify" viewBox="0 0 375 374.999991" height="500" preserveAspectRatio="xMidYMid meet" version="1.0"><defs><g/><clipPath id="24b62d0835"><path d="M 74.507812 167.972656 L 115.757812 167.972656 L 115.757812 194.222656 L 74.507812 194.222656 Z M 74.507812 167.972656 " clip-rule="nonzero"/></clipPath><clipPath id="8befc2ae8f"><rect x="0" width="203" y="0" height="77"/></clipPath></defs><path fill="#2563eb" d="M 88.585938 224.398438 C 83.753906 227.300781 78.996094 223.277344 76.519531 219.332031 C 74.042969 215.386719 72.726562 210.707031 72.535156 206.0625 C 72.339844 201.382812 71.527344 196.703125 71.21875 192.023438 C 70.988281 188.503906 69.402344 185.019531 66.695312 182.816406 C 63.171875 180.03125 59.226562 176.472656 58.761719 171.714844 C 57.835938 162.46875 63.019531 153.84375 71.335938 150.128906 C 76.75 147.691406 82.667969 148.234375 87.542969 151.714844 C 88.625 152.488281 89.824219 153.261719 90.910156 154.074219 C 93.847656 156.320312 94.507812 160.457031 97.5625 162.777344 C 99.882812 164.558594 103.324219 164.09375 105.996094 163.628906 C 107.308594 163.398438 108.742188 163.976562 108.585938 165.523438 C 108.585938 165.523438 108.585938 165.5625 108.585938 165.5625 C 108.394531 167.035156 107.347656 166.996094 106.148438 167.1875 C 102.511719 167.808594 100.425781 168.078125 96.902344 166.609375 C 94.621094 165.679688 93.34375 163.398438 91.527344 161.929688 C 90.367188 161 89.128906 160.378906 87.890625 160.070312 C 81.933594 158.640625 74.429688 164.558594 72.921875 170.089844 C 72.109375 173.105469 72.84375 176.125 74.546875 178.675781 C 78.183594 184.132812 78.878906 186.761719 78.878906 193.335938 C 78.878906 196.820312 78.53125 200.339844 78.761719 203.820312 C 79.03125 207.261719 79.304688 211.480469 81.199219 214.535156 C 82.242188 216.199219 84.757812 218.289062 86.808594 216.933594 C 88.472656 215.890625 88.085938 213.296875 88.394531 211.632812 C 88.898438 208.734375 91.875 207.574219 92.457031 211.09375 C 92.882812 213.957031 91.953125 217.050781 91.335938 219.796875 C 90.910156 221.652344 90.019531 223.546875 88.585938 224.398438 Z M 105.917969 195.15625 C 103.09375 195.96875 99.726562 194.769531 97.019531 196.046875 C 95.085938 196.972656 88.550781 204.015625 92.300781 205.675781 C 93.539062 206.21875 94.351562 204.246094 94.855469 203.511719 C 96.246094 201.382812 99.378906 200.84375 101.238281 202.777344 C 102.859375 204.441406 103.054688 207.378906 103.210938 209.546875 C 103.519531 213.53125 102.785156 217.667969 103.945312 221.574219 C 104.449219 223.277344 105.375 224.902344 107.15625 225.484375 C 111.0625 226.683594 114.464844 224.320312 116.75 221.304688 C 117.871094 219.796875 118.835938 218.09375 119.570312 216.316406 C 119.921875 215.464844 119.957031 214.691406 120.152344 213.878906 C 120.695312 211.945312 121.3125 210.511719 121.621094 208.5 C 122.164062 205.175781 122.742188 201.65625 122.859375 198.289062 C 122.9375 195.386719 123.054688 192.214844 124.136719 189.429688 C 125.296875 186.335938 127.8125 184.054688 129.9375 181.617188 C 131.175781 180.222656 132.761719 179.21875 133.847656 177.710938 C 136.902344 173.417969 135.972656 167.035156 134.347656 162.351562 C 132.609375 157.441406 129.203125 152.914062 124.714844 150.246094 C 121.003906 148.003906 116.050781 148.390625 112.183594 150.089844 C 108.78125 151.5625 107.8125 154.695312 105.375 157.207031 C 104.097656 158.5625 98.453125 160.765625 102.628906 161.890625 C 104.679688 162.429688 106.960938 161.773438 108.933594 162.316406 C 112.222656 163.203125 114 166.335938 114.890625 169.433594 C 115.703125 172.257812 115.355469 175.15625 115.394531 178.019531 C 115.433594 181.074219 115.433594 184.207031 114.425781 187.148438 C 113.113281 191.210938 109.980469 193.996094 105.917969 195.15625 Z M 105.917969 195.15625 " fill-opacity="1" fill-rule="nonzero"/><g clip-path="url(#24b62d0835)"><path fill="#2563eb" d="M 114.8125 181.257812 L 108.222656 181.257812 C 107.261719 181.257812 106.4375 181.988281 106.261719 182.996094 L 105.761719 185.832031 L 104.183594 177.359375 C 104.015625 176.46875 103.308594 175.855469 102.457031 175.855469 C 102.445312 175.855469 102.429688 175.855469 102.414062 175.855469 C 101.542969 175.878906 100.84375 176.53125 100.714844 177.449219 L 98.679688 191.917969 L 96.335938 169.632812 C 96.234375 168.683594 95.511719 167.984375 94.609375 167.972656 C 94.601562 167.972656 94.59375 167.972656 94.585938 167.972656 C 93.699219 167.972656 92.96875 168.644531 92.847656 169.578125 L 90.621094 186.210938 L 89.585938 176.621094 C 89.484375 175.6875 88.796875 175.007812 87.914062 174.964844 C 87.027344 174.921875 86.300781 175.53125 86.117188 176.433594 L 85.03125 181.773438 L 84.804688 180.441406 C 84.667969 179.621094 84.054688 179.007812 83.273438 178.914062 C 82.5 178.820312 81.792969 179.246094 81.464844 180.003906 L 80.941406 181.257812 L 75.453125 181.257812 C 74.945312 181.257812 74.539062 181.667969 74.539062 182.171875 C 74.539062 182.679688 74.945312 183.089844 75.453125 183.089844 L 81.054688 183.089844 C 81.722656 183.089844 82.332031 182.671875 82.601562 182.023438 L 83.039062 180.988281 L 83.289062 182.46875 C 83.441406 183.359375 84.140625 183.992188 84.992188 184.007812 C 85.847656 184.035156 86.5625 183.417969 86.742188 182.539062 L 87.816406 177.273438 L 88.867188 187.007812 C 88.96875 187.957031 89.699219 188.652344 90.597656 188.664062 C 90.605469 188.664062 90.609375 188.664062 90.617188 188.664062 C 91.515625 188.664062 92.230469 188.003906 92.355469 187.058594 L 94.578125 170.429688 L 96.921875 192.695312 C 97.019531 193.640625 97.742188 194.339844 98.640625 194.359375 C 98.652344 194.359375 98.660156 194.359375 98.671875 194.359375 C 99.5625 194.359375 100.277344 193.707031 100.410156 192.765625 L 102.464844 178.140625 L 104.039062 186.582031 C 104.207031 187.46875 104.914062 188.085938 105.765625 188.085938 C 105.769531 188.085938 105.773438 188.085938 105.777344 188.085938 C 106.632812 188.078125 107.339844 187.449219 107.492188 186.5625 L 108.066406 183.3125 C 108.089844 183.164062 108.179688 183.089844 108.222656 183.089844 L 114.8125 183.089844 C 115.320312 183.089844 115.730469 182.679688 115.730469 182.171875 C 115.730469 181.667969 115.320312 181.257812 114.8125 181.257812 Z M 114.8125 181.257812 " fill-opacity="1" fill-rule="nonzero"/></g><g transform="matrix(1, 0, 0, 1, 136, 149)"><g clip-path="url(#8befc2ae8f)"><g fill="#2563eb" fill-opacity="1"><g transform="translate(0.906329, 60.33635)"><g><path d="M 35.484375 -12.65625 C 36.179688 -12.351562 36.601562 -11.914062 36.75 -11.34375 C 36.90625 -10.769531 36.832031 -10.160156 36.53125 -9.515625 C 34.882812 -6.617188 32.601562 -4.304688 29.6875 -2.578125 C 26.769531 -0.859375 23.613281 0 20.21875 0 C 16.769531 0 13.632812 -0.847656 10.8125 -2.546875 C 8 -4.242188 5.765625 -6.523438 4.109375 -9.390625 C 2.460938 -12.265625 1.640625 -15.425781 1.640625 -18.875 C 1.640625 -22.21875 2.460938 -25.296875 4.109375 -28.109375 C 5.765625 -30.929688 8 -33.191406 10.8125 -34.890625 C 13.632812 -36.585938 16.769531 -37.4375 20.21875 -37.4375 C 23.613281 -37.4375 26.769531 -36.585938 29.6875 -34.890625 C 32.601562 -33.191406 34.882812 -30.867188 36.53125 -27.921875 C 36.832031 -27.273438 36.90625 -26.664062 36.75 -26.09375 C 36.601562 -25.519531 36.179688 -25.082031 35.484375 -24.78125 C 35.035156 -24.4375 34.460938 -24.347656 33.765625 -24.515625 C 33.066406 -24.691406 32.566406 -25.082031 32.265625 -25.6875 C 30.972656 -27.78125 29.253906 -29.453125 27.109375 -30.703125 C 24.960938 -31.953125 22.664062 -32.578125 20.21875 -32.578125 C 17.71875 -32.578125 15.429688 -31.953125 13.359375 -30.703125 C 11.296875 -29.453125 9.640625 -27.789062 8.390625 -25.71875 C 7.140625 -23.644531 6.515625 -21.363281 6.515625 -18.875 C 6.515625 -16.269531 7.140625 -13.90625 8.390625 -11.78125 C 9.640625 -9.664062 11.296875 -7.972656 13.359375 -6.703125 C 15.429688 -5.429688 17.71875 -4.796875 20.21875 -4.796875 C 22.664062 -4.796875 24.960938 -5.414062 27.109375 -6.65625 C 29.253906 -7.90625 30.972656 -9.582031 32.265625 -11.6875 C 32.566406 -12.332031 33.066406 -12.726562 33.765625 -12.875 C 34.460938 -13.03125 35.035156 -12.957031 35.484375 -12.65625 Z M 35.484375 -12.65625 "/></g></g></g><g fill="#2563eb" fill-opacity="1"><g transform="translate(39.390065, 60.33635)"><g><path d="M 20.359375 0 C 24.753906 0 28.675781 -1.375 32.125 -4.125 C 32.664062 -4.519531 32.960938 -5.050781 33.015625 -5.71875 C 33.066406 -6.394531 32.894531 -6.984375 32.5 -7.484375 C 32.050781 -8.035156 31.5 -8.347656 30.84375 -8.421875 C 30.195312 -8.492188 29.597656 -8.304688 29.046875 -7.859375 C 26.503906 -5.859375 23.609375 -4.859375 20.359375 -4.859375 C 17.816406 -4.859375 15.5 -5.484375 13.40625 -6.734375 C 11.3125 -7.984375 9.640625 -9.65625 8.390625 -11.75 C 7.140625 -13.851562 6.515625 -16.175781 6.515625 -18.71875 C 6.515625 -21.257812 7.140625 -23.578125 8.390625 -25.671875 C 9.640625 -27.773438 11.3125 -29.453125 13.40625 -30.703125 C 15.5 -31.953125 17.816406 -32.578125 20.359375 -32.578125 C 22.910156 -32.578125 25.234375 -31.953125 27.328125 -30.703125 C 29.421875 -29.453125 31.09375 -27.773438 32.34375 -25.671875 C 33.59375 -23.578125 34.21875 -21.257812 34.21875 -18.71875 L 34.21875 -2.390625 C 34.21875 -1.742188 34.46875 -1.179688 34.96875 -0.703125 C 35.46875 -0.234375 36.039062 0 36.6875 0 C 37.382812 0 37.957031 -0.234375 38.40625 -0.703125 C 38.851562 -1.179688 39.078125 -1.742188 39.078125 -2.390625 L 39.078125 -18.71875 C 39.078125 -22.164062 38.238281 -25.3125 36.5625 -28.15625 C 34.894531 -31 32.640625 -33.253906 29.796875 -34.921875 C 26.953125 -36.597656 23.804688 -37.4375 20.359375 -37.4375 C 16.921875 -37.4375 13.789062 -36.597656 10.96875 -34.921875 C 8.144531 -33.253906 5.882812 -31 4.1875 -28.15625 C 2.488281 -25.3125 1.640625 -22.164062 1.640625 -18.71875 C 1.640625 -15.269531 2.488281 -12.132812 4.1875 -9.3125 C 5.882812 -6.5 8.144531 -4.242188 10.96875 -2.546875 C 13.789062 -0.847656 16.921875 0 20.359375 0 Z M 20.359375 0 "/></g></g></g><g fill="#2563eb" fill-opacity="1"><g transform="translate(80.119938, 60.33635)"><g><path d="M 4.125 0 C 4.820312 0 5.394531 -0.25 5.84375 -0.75 C 6.289062 -1.25 6.515625 -1.820312 6.515625 -2.46875 L 6.515625 -18.71875 C 6.515625 -21.257812 7.140625 -23.578125 8.390625 -25.671875 C 9.640625 -27.773438 11.3125 -29.453125 13.40625 -30.703125 C 15.5 -31.953125 17.816406 -32.578125 20.359375 -32.578125 C 22.359375 -32.578125 24.269531 -32.160156 26.09375 -31.328125 C 27.914062 -30.503906 29.476562 -29.347656 30.78125 -27.859375 C 31.226562 -27.359375 31.785156 -27.082031 32.453125 -27.03125 C 33.128906 -26.976562 33.71875 -27.175781 34.21875 -27.625 C 34.769531 -28.070312 35.054688 -28.632812 35.078125 -29.3125 C 35.097656 -29.988281 34.882812 -30.578125 34.4375 -31.078125 C 32.695312 -33.117188 30.585938 -34.6875 28.109375 -35.78125 C 25.640625 -36.882812 23.054688 -37.4375 20.359375 -37.4375 C 16.921875 -37.4375 13.789062 -36.597656 10.96875 -34.921875 C 8.144531 -33.253906 5.882812 -31 4.1875 -28.15625 C 2.488281 -25.3125 1.640625 -22.164062 1.640625 -18.71875 L 1.640625 -2.46875 C 1.640625 -1.820312 1.890625 -1.25 2.390625 -0.75 C 2.890625 -0.25 3.46875 0 4.125 0 Z M 4.125 0 "/></g></g></g><g fill="#2563eb" fill-opacity="1"><g transform="translate(114.785255, 60.33635)"><g><path d="M 4.125 0 C 4.820312 0 5.40625 -0.234375 5.875 -0.703125 C 6.351562 -1.179688 6.59375 -1.742188 6.59375 -2.390625 L 6.59375 -35.046875 C 6.59375 -35.691406 6.351562 -36.25 5.875 -36.71875 C 5.40625 -37.195312 4.820312 -37.4375 4.125 -37.4375 C 3.414062 -37.4375 2.820312 -37.195312 2.34375 -36.71875 C 1.875 -36.25 1.640625 -35.691406 1.640625 -35.046875 L 1.640625 -2.390625 C 1.640625 -1.742188 1.875 -1.179688 2.34375 -0.703125 C 2.820312 -0.234375 3.414062 0 4.125 0 Z M 1.640625 -45.75 C 1.640625 -45.101562 1.875 -44.53125 2.34375 -44.03125 C 2.820312 -43.53125 3.414062 -43.28125 4.125 -43.28125 C 4.820312 -43.28125 5.40625 -43.53125 5.875 -44.03125 C 6.351562 -44.53125 6.59375 -45.101562 6.59375 -45.75 L 6.59375 -49.859375 C 6.59375 -50.566406 6.351562 -51.164062 5.875 -51.65625 C 5.40625 -52.15625 4.820312 -52.40625 4.125 -52.40625 C 3.414062 -52.40625 2.820312 -52.15625 2.34375 -51.65625 C 1.875 -51.164062 1.640625 -50.566406 1.640625 -49.859375 Z M 1.640625 -45.75 "/></g></g></g><g fill="#2563eb" fill-opacity="1"><g transform="translate(123.021073, 60.33635)"><g><path d="M 20.296875 -37.4375 C 23.734375 -37.4375 26.847656 -36.585938 29.640625 -34.890625 C 32.441406 -33.191406 34.675781 -30.921875 36.34375 -28.078125 C 38.019531 -25.234375 38.859375 -22.085938 38.859375 -18.640625 C 38.859375 -17.992188 38.59375 -17.421875 38.0625 -16.921875 C 37.539062 -16.421875 37.007812 -16.171875 36.46875 -16.171875 L 15.875 -16.171875 C 15.269531 -16.171875 14.753906 -16.382812 14.328125 -16.8125 C 13.910156 -17.238281 13.703125 -17.75 13.703125 -18.34375 C 13.703125 -19.039062 13.910156 -19.601562 14.328125 -20.03125 C 14.753906 -20.457031 15.269531 -20.671875 15.875 -20.671875 L 33.84375 -20.671875 C 33.539062 -22.910156 32.753906 -24.925781 31.484375 -26.71875 C 30.210938 -28.519531 28.613281 -29.929688 26.6875 -30.953125 C 24.769531 -31.984375 22.640625 -32.5 20.296875 -32.5 C 17.742188 -32.5 15.421875 -31.875 13.328125 -30.625 C 11.234375 -29.375 9.570312 -27.710938 8.34375 -25.640625 C 7.125 -23.566406 6.515625 -21.234375 6.515625 -18.640625 C 6.515625 -16.148438 7.125 -13.851562 8.34375 -11.75 C 9.570312 -9.65625 11.234375 -7.984375 13.328125 -6.734375 C 15.421875 -5.484375 17.742188 -4.859375 20.296875 -4.859375 C 22.785156 -4.859375 25.078125 -5.484375 27.171875 -6.734375 C 29.273438 -7.984375 30.953125 -9.679688 32.203125 -11.828125 C 32.492188 -12.378906 32.960938 -12.738281 33.609375 -12.90625 C 34.265625 -13.082031 34.890625 -13 35.484375 -12.65625 C 36.085938 -12.351562 36.472656 -11.878906 36.640625 -11.234375 C 36.816406 -10.585938 36.734375 -9.960938 36.390625 -9.359375 C 34.742188 -6.460938 32.484375 -4.175781 29.609375 -2.5 C 26.742188 -0.832031 23.640625 0 20.296875 0 C 16.847656 0 13.710938 -0.832031 10.890625 -2.5 C 8.066406 -4.175781 5.816406 -6.4375 4.140625 -9.28125 C 2.472656 -12.125 1.640625 -15.242188 1.640625 -18.640625 C 1.640625 -22.085938 2.472656 -25.234375 4.140625 -28.078125 C 5.816406 -30.921875 8.066406 -33.191406 10.890625 -34.890625 C 13.710938 -36.585938 16.847656 -37.4375 20.296875 -37.4375 Z M 20.296875 -37.4375 "/></g></g></g><g fill="#2563eb" fill-opacity="1"><g transform="translate(163.526332, 60.33635)"><g><path d="M 36.984375 -4.125 C 37.390625 -3.664062 37.59375 -3.097656 37.59375 -2.421875 C 37.59375 -1.753906 37.390625 -1.171875 36.984375 -0.671875 C 36.484375 -0.222656 35.910156 0 35.265625 0 C 34.566406 0 33.992188 -0.222656 33.546875 -0.671875 L 19.015625 -15.5 L 4.5 -0.671875 C 4 -0.222656 3.421875 0 2.765625 0 C 2.066406 0 1.492188 -0.222656 1.046875 -0.671875 C 0.597656 -1.171875 0.375 -1.753906 0.375 -2.421875 C 0.375 -3.097656 0.597656 -3.664062 1.046875 -4.125 L 15.875 -18.640625 L 1.046875 -33.25 C 0.597656 -33.75 0.375 -34.332031 0.375 -35 C 0.375 -35.675781 0.597656 -36.238281 1.046875 -36.6875 C 1.492188 -37.1875 2.054688 -37.4375 2.734375 -37.4375 C 3.410156 -37.4375 4 -37.1875 4.5 -36.6875 L 19.015625 -21.640625 L 33.546875 -36.6875 C 33.992188 -37.1875 34.550781 -37.4375 35.21875 -37.4375 C 35.894531 -37.4375 36.484375 -37.1875 36.984375 -36.6875 C 37.390625 -36.238281 37.59375 -35.675781 37.59375 -35 C 37.59375 -34.332031 37.390625 -33.75 36.984375 -33.25 L 22.15625 -18.640625 Z M 36.984375 -4.125 "/></g></g></g></g></g></svg>