<svg width="340" height="207" viewBox="0 0 340 207" fill="none" xmlns="http://www.w3.org/2000/svg">
<mask id="mask0_28_3" style="mask-type:luminance" maskUnits="userSpaceOnUse" x="0" y="0" width="340" height="207">
<path d="M340 0H0V206.667H340V0Z" fill="white"/>
</mask>
<g mask="url(#mask0_28_3)">
<mask id="mask1_28_3" style="mask-type:luminance" maskUnits="userSpaceOnUse" x="0" y="78" width="340" height="128">
<path d="M0.265625 78.6666H339.146V205.547H0.265625V78.6666Z" fill="white"/>
</mask>
<g mask="url(#mask1_28_3)">
<mask id="mask2_28_3" style="mask-type:luminance" maskUnits="userSpaceOnUse" x="0" y="78" width="340" height="129">
<path d="M340 78.6666H0V206.667H340V78.6666Z" fill="white"/>
</mask>
<g mask="url(#mask2_28_3)">
<path d="M59.9397 157.625C61.1063 158.125 61.8147 158.864 62.0647 159.833C62.3147 160.792 62.1897 161.812 61.6897 162.896C58.924 167.76 55.0907 171.635 50.1897 174.521C45.299 177.411 40.0074 178.854 34.3147 178.854C28.5334 178.854 23.2782 177.432 18.5438 174.583C13.8199 171.739 10.0751 167.911 7.31466 163.104C4.54903 158.286 3.16882 152.989 3.16882 147.208C3.16882 141.599 4.54903 136.427 7.31466 131.687C10.0751 126.953 13.8199 123.161 18.5438 120.312C23.2782 117.469 28.5334 116.042 34.3147 116.042C40.0074 116.042 45.299 117.469 50.1897 120.312C55.0907 123.161 58.924 127.057 61.6897 132C62.1897 133.099 62.3147 134.125 62.0647 135.083C61.8147 136.042 61.1063 136.771 59.9397 137.271C59.174 137.87 58.2105 138.021 57.0438 137.729C55.8772 137.427 55.0438 136.771 54.5438 135.771C52.3615 132.26 49.4657 129.453 45.8563 127.354C42.2574 125.26 38.4084 124.208 34.3147 124.208C30.1167 124.208 26.2834 125.26 22.8147 127.354C19.3407 129.453 16.5542 132.239 14.4605 135.708C12.3772 139.182 11.3355 143.015 11.3355 147.208C11.3355 151.557 12.3772 155.515 14.4605 159.083C16.5542 162.64 19.3407 165.489 22.8147 167.625C26.2834 169.75 30.1167 170.812 34.3147 170.812C38.4084 170.812 42.2574 169.771 45.8563 167.687C49.4657 165.594 52.3615 162.781 54.5438 159.25C55.0438 158.167 55.8772 157.5 57.0438 157.25C58.2105 157 59.174 157.125 59.9397 157.625Z" fill="white"/>
<path d="M99.129 178.854C106.488 178.854 113.056 176.552 118.837 171.937C119.764 171.271 120.275 170.375 120.358 169.25C120.442 168.114 120.15 167.125 119.483 166.292C118.718 165.375 117.796 164.854 116.712 164.729C115.629 164.604 114.619 164.917 113.692 165.667C109.426 169.015 104.572 170.687 99.129 170.687C94.8478 170.687 90.952 169.646 87.4415 167.562C83.9259 165.469 81.1186 162.661 79.0249 159.146C76.9415 155.62 75.8999 151.724 75.8999 147.458C75.8999 143.182 76.9415 139.286 79.0249 135.771C81.1186 132.26 83.9259 129.453 87.4415 127.354C90.952 125.26 94.8478 124.208 99.129 124.208C103.389 124.208 107.28 125.26 110.796 127.354C114.322 129.453 117.129 132.26 119.212 135.771C121.306 139.286 122.358 143.182 122.358 147.458V174.833C122.358 175.917 122.775 176.864 123.608 177.667C124.452 178.458 125.421 178.854 126.504 178.854C127.681 178.854 128.65 178.458 129.4 177.667C130.15 176.864 130.525 175.917 130.525 174.833V147.458C130.525 141.682 129.119 136.406 126.317 131.625C123.509 126.849 119.718 123.057 114.942 120.25C110.176 117.448 104.905 116.042 99.129 116.042C93.3478 116.042 88.0926 117.448 83.3582 120.25C78.6343 123.057 74.8478 126.849 72.004 131.625C69.1551 136.406 67.7332 141.682 67.7332 147.458C67.7332 153.239 69.1551 158.495 72.004 163.229C74.8478 167.953 78.6343 171.739 83.3582 174.583C88.0926 177.432 93.3478 178.854 99.129 178.854Z" fill="white"/>
<path d="M140.212 178.854C141.379 178.854 142.337 178.437 143.087 177.604C143.847 176.76 144.233 175.792 144.233 174.708V147.458C144.233 143.182 145.274 139.286 147.358 135.771C149.451 132.26 152.259 129.453 155.774 127.354C159.285 125.26 163.181 124.208 167.462 124.208C170.806 124.208 174.009 124.906 177.066 126.292C180.118 127.667 182.738 129.614 184.92 132.125C185.67 132.958 186.608 133.427 187.733 133.521C188.868 133.604 189.858 133.265 190.691 132.5C191.618 131.75 192.108 130.812 192.149 129.687C192.191 128.552 191.826 127.562 191.066 126.729C188.134 123.302 184.592 120.661 180.441 118.812C176.3 116.969 171.972 116.042 167.462 116.042C161.681 116.042 156.425 117.448 151.691 120.25C146.967 123.057 143.181 126.849 140.337 131.625C137.488 136.406 136.066 141.682 136.066 147.458V174.708C136.066 175.792 136.483 176.76 137.316 177.604C138.149 178.437 139.113 178.854 140.212 178.854Z" fill="white"/>
<path d="M198.37 178.854C199.537 178.854 200.516 178.458 201.308 177.667C202.11 176.864 202.516 175.917 202.516 174.833V120.062C202.516 118.979 202.11 118.042 201.308 117.25C200.516 116.448 199.537 116.042 198.37 116.042C197.188 116.042 196.203 116.448 195.412 117.25C194.62 118.042 194.224 118.979 194.224 120.062V174.833C194.224 175.917 194.62 176.864 195.412 177.667C196.203 178.458 197.188 178.854 198.37 178.854ZM194.224 102.104C194.224 103.203 194.62 104.167 195.412 105C196.203 105.833 197.188 106.25 198.37 106.25C199.537 106.25 200.516 105.833 201.308 105C202.11 104.167 202.516 103.203 202.516 102.104V95.2082C202.516 94.0311 202.11 93.0207 201.308 92.1874C200.516 91.354 199.537 90.9374 198.37 90.9374C197.188 90.9374 196.203 91.354 195.412 92.1874C194.62 93.0207 194.224 94.0311 194.224 95.2082V102.104Z" fill="white"/>
<path d="M239.312 116.042C245.088 116.042 250.318 117.469 255 120.312C259.693 123.161 263.443 126.974 266.25 131.75C269.052 136.531 270.458 141.807 270.458 147.583C270.458 148.667 270.01 149.635 269.125 150.479C268.25 151.312 267.354 151.729 266.437 151.729H231.896C230.896 151.729 230.031 151.375 229.312 150.667C228.604 149.948 228.25 149.083 228.25 148.083C228.25 146.906 228.604 145.958 229.312 145.25C230.031 144.542 230.896 144.187 231.896 144.187H262.042C261.542 140.427 260.219 137.036 258.083 134.021C255.943 131.01 253.26 128.64 250.042 126.917C246.818 125.198 243.24 124.333 239.312 124.333C235.031 124.333 231.135 125.385 227.625 127.479C224.109 129.578 221.323 132.364 219.271 135.833C217.229 139.307 216.208 143.224 216.208 147.583C216.208 151.765 217.229 155.62 219.271 159.146C221.323 162.661 224.109 165.469 227.625 167.562C231.135 169.646 235.031 170.687 239.312 170.687C243.49 170.687 247.338 169.646 250.854 167.562C254.38 165.469 257.187 162.614 259.271 159C259.781 158.083 260.583 157.479 261.667 157.187C262.75 156.896 263.797 157.042 264.812 157.625C265.812 158.125 266.458 158.927 266.75 160.021C267.042 161.104 266.896 162.146 266.312 163.146C263.547 168.01 259.755 171.844 254.937 174.646C250.13 177.453 244.922 178.854 239.312 178.854C233.531 178.854 228.276 177.453 223.542 174.646C218.818 171.844 215.052 168.057 212.25 163.292C209.443 158.515 208.042 153.281 208.042 147.583C208.042 141.807 209.443 136.531 212.25 131.75C215.052 126.974 218.818 123.161 223.542 120.312C228.276 117.469 233.531 116.042 239.312 116.042Z" fill="white"/>
<path d="M335.268 171.937C335.945 172.703 336.289 173.646 336.289 174.771C336.289 175.896 335.945 176.885 335.268 177.729C334.435 178.479 333.477 178.854 332.393 178.854C331.211 178.854 330.248 178.479 329.498 177.729L305.123 152.854L280.768 177.729C279.919 178.479 278.956 178.854 277.873 178.854C276.706 178.854 275.737 178.479 274.977 177.729C274.227 176.885 273.852 175.896 273.852 174.771C273.852 173.646 274.227 172.703 274.977 171.937L299.852 147.583L274.977 123.083C274.227 122.25 273.852 121.271 273.852 120.146C273.852 119.01 274.227 118.062 274.977 117.312C275.737 116.469 276.685 116.042 277.81 116.042C278.935 116.042 279.919 116.469 280.768 117.312L305.123 142.562L329.498 117.312C330.248 116.469 331.185 116.042 332.31 116.042C333.445 116.042 334.435 116.469 335.268 117.312C335.945 118.062 336.289 119.01 336.289 120.146C336.289 121.271 335.945 122.25 335.268 123.083L310.414 147.583L335.268 171.937Z" fill="white"/>
</g>
</g>
<mask id="mask3_28_3" style="mask-type:luminance" maskUnits="userSpaceOnUse" x="141" y="1" width="114" height="114">
<path d="M141.333 1.06769H254.667V114.667H141.333V1.06769Z" fill="white"/>
</mask>
<g mask="url(#mask3_28_3)">
<path d="M185.698 111.604C178.661 115.828 171.734 109.969 168.13 104.224C164.526 98.4843 162.609 91.6666 162.328 84.9114C162.047 78.0989 160.865 71.2864 160.417 64.4687C160.078 59.3489 157.766 54.276 153.828 51.0677C148.703 47.0156 142.958 41.8333 142.281 34.9062C140.932 21.4479 148.479 8.89059 160.583 3.48434C168.469 -0.0625398 177.083 0.729127 184.177 5.79683C185.755 6.92183 187.5 8.04684 189.078 9.22913C193.354 12.4948 194.313 18.5208 198.76 21.901C202.141 24.4895 207.151 23.8125 211.036 23.1406C212.953 22.802 215.036 23.6458 214.813 25.8958V25.9531C214.531 28.0937 213.01 28.0364 211.26 28.3177C205.969 29.2187 202.927 29.6145 197.802 27.4739C194.484 26.125 192.625 22.802 189.979 20.6614C188.286 19.3073 186.484 18.4062 184.682 17.9583C176.01 15.875 165.089 24.4895 162.891 32.5416C161.708 36.9323 162.781 41.3281 165.255 45.0416C170.552 52.9843 171.563 56.8125 171.563 66.3854C171.563 71.4531 171.057 76.5781 171.396 81.6458C171.792 86.6562 172.182 92.7968 174.943 97.2448C176.464 99.6666 180.125 102.703 183.109 100.734C185.531 99.2135 184.964 95.4427 185.417 93.0208C186.146 88.7968 190.484 87.1093 191.328 92.2291C191.948 96.401 190.599 100.901 189.698 104.901C189.078 107.604 187.781 110.365 185.698 111.604ZM210.927 69.0312C206.813 70.2135 201.917 68.4687 197.974 70.3281C195.156 71.677 185.641 81.927 191.104 84.3489C192.906 85.1354 194.089 82.2656 194.818 81.1927C196.849 78.0989 201.406 77.3073 204.109 80.125C206.474 82.5468 206.76 86.8281 206.984 89.9791C207.432 95.7812 206.365 101.802 208.052 107.49C208.786 109.969 210.135 112.333 212.729 113.177C218.417 114.927 223.37 111.49 226.693 107.099C228.323 104.901 229.734 102.422 230.802 99.8333C231.307 98.5937 231.365 97.4687 231.646 96.2864C232.438 93.4687 233.339 91.3854 233.786 88.4583C234.573 83.6145 235.422 78.4895 235.589 73.5937C235.703 69.3698 235.87 64.75 237.448 60.6979C239.135 56.1927 242.797 52.8698 245.896 49.3229C247.698 47.2968 250.005 45.8333 251.583 43.6354C256.031 37.3854 254.677 28.0937 252.313 21.2812C249.781 14.1302 244.823 7.54163 238.292 3.65621C232.885 0.390586 225.677 0.953086 220.047 3.43225C215.094 5.56767 213.682 10.1302 210.135 13.7916C208.276 15.7604 200.057 18.9739 206.141 20.6041C209.125 21.3906 212.443 20.4375 215.318 21.2239C220.104 22.5208 222.693 27.0781 223.99 31.5833C225.172 35.6979 224.667 39.9218 224.719 44.0885C224.776 48.5364 224.776 53.0937 223.313 57.375C221.401 63.2864 216.839 67.3437 210.927 69.0312Z" fill="white"/>
</g>
<mask id="mask4_28_3" style="mask-type:luminance" maskUnits="userSpaceOnUse" x="165" y="29" width="61" height="39">
<path d="M165.203 29.4583H225.25V67.6719H165.203V29.4583Z" fill="white"/>
</mask>
<g mask="url(#mask4_28_3)">
<path d="M223.875 48.8021H214.281C212.885 48.8021 211.682 49.8646 211.427 51.3333L210.698 55.4583L208.401 43.125C208.156 41.8281 207.13 40.9375 205.891 40.9375C205.87 40.9375 205.849 40.9375 205.828 40.9375C204.557 40.9687 203.536 41.9219 203.354 43.2552L200.391 64.3229L196.979 31.875C196.833 30.4948 195.776 29.4791 194.469 29.4583C194.453 29.4583 194.443 29.4583 194.432 29.4583C193.141 29.4583 192.078 30.4375 191.896 31.7969L188.661 56.0104L187.151 42.0469C187.005 40.6927 186 39.7031 184.714 39.6406C183.427 39.5781 182.37 40.4635 182.104 41.776L180.516 49.5469L180.193 47.6094C179.99 46.4219 179.099 45.526 177.964 45.3906C176.839 45.2552 175.807 45.8698 175.328 46.9739L174.563 48.8021H166.578C165.839 48.8021 165.245 49.3958 165.245 50.1302C165.245 50.8698 165.839 51.4635 166.578 51.4635H174.734C175.708 51.4635 176.589 50.8594 176.984 49.9166L177.625 48.4062L177.984 50.5625C178.203 51.8594 179.224 52.7812 180.464 52.8021C181.708 52.8437 182.75 51.9479 183.01 50.6614L184.573 42.9948L186.104 57.1666C186.255 58.5521 187.313 59.5677 188.625 59.5833C188.635 59.5833 188.641 59.5833 188.651 59.5833C189.964 59.5833 191 58.625 191.182 57.2448L194.417 33.0416L197.828 65.4479C197.974 66.8281 199.026 67.8489 200.328 67.8698C200.349 67.8698 200.365 67.8698 200.38 67.8698C201.677 67.8698 202.714 66.9271 202.906 65.5521L205.901 44.2656L208.193 56.5521C208.438 57.8437 209.469 58.7396 210.703 58.7396C210.708 58.7396 210.719 58.7396 210.724 58.7396C211.969 58.7291 212.995 57.8177 213.219 56.5208L214.052 51.7916C214.089 51.5729 214.219 51.4635 214.281 51.4635H223.875C224.615 51.4635 225.208 50.8698 225.208 50.1302C225.208 49.3958 224.615 48.8021 223.875 48.8021Z" fill="white"/>
</g>
</g>
</svg>
